<?xml version="1.0" encoding="UTF-8" standalone="no"?>
<svg
   xmlns:dc="http://purl.org/dc/elements/1.1/"
   xmlns:cc="http://creativecommons.org/ns#"
   xmlns:rdf="http://www.w3.org/1999/02/22-rdf-syntax-ns#"
   xmlns:svg="http://www.w3.org/2000/svg"
   xmlns="http://www.w3.org/2000/svg"
   xmlns:sodipodi="http://sodipodi.sourceforge.net/DTD/sodipodi-0.dtd"
   xmlns:inkscape="http://www.inkscape.org/namespaces/inkscape"
   width="210.92648mm"
   height="101.25934mm"
   viewBox="0 0 210.92648 101.25934"
   version="1.1"
   id="svg94"
   sodipodi:docname="logoally.svg"
   inkscape:version="1.0.2 (e86c8708, 2021-01-15)">
  <defs
     id="defs88" />
  <sodipodi:namedview
     id="base"
     pagecolor="#ffffff"
     bordercolor="#666666"
     borderopacity="1.0"
     inkscape:pageopacity="0"
     inkscape:pageshadow="2"
     inkscape:zoom="0.44744592"
     inkscape:cx="745.71988"
     inkscape:cy="177.75546"
     inkscape:document-units="mm"
     inkscape:current-layer="layer1"
     inkscape:document-rotation="0"
     showgrid="false"
     showguides="true"
     inkscape:guide-bbox="true"
     inkscape:window-width="1434"
     inkscape:window-height="786"
     inkscape:window-x="92"
     inkscape:window-y="102"
     inkscape:window-maximized="0"
     inkscape:pagecheckerboard="true" />
  <metadata
     id="metadata91">
    <rdf:RDF>
      <cc:Work
         rdf:about="">
        <dc:format>image/svg+xml</dc:format>
        <dc:type
           rdf:resource="http://purl.org/dc/dcmitype/StillImage" />
        <dc:title />
      </cc:Work>
    </rdf:RDF>
  </metadata>
  <g
     inkscape:groupmode="layer"
     id="layer2"
     inkscape:label="Calque 2"
     transform="translate(0,-110.03271)"
     style="display:inline;opacity:1" />
  <g
     inkscape:label="Calque 1"
     inkscape:groupmode="layer"
     id="layer1"
     transform="translate(0,-110.03271)"
     style="display:inline">
    <path
       style="fill:#000000;stroke:#000000;stroke-width:0.242753px;stroke-linecap:butt;stroke-linejoin:miter;stroke-opacity:1"
       d="m 40.081772,159.28565 c -0.543548,-5.74608 -1.941244,-8.54148 -3.49424,-10.48272 -4.34839,-2.01889 -6.211984,-1.553 -8.463829,-1.0871 -2.251841,0.4659 -13.045162,4.19309 -10.560371,3.80484 2.484793,-0.38824 6.833184,-0.62119 6.677882,-0.62119 0.931798,2.56244 2.507902,6.16396 4.066792,7.63868 1.570459,1.48566 5.317615,3.46045 8.434826,2.68874 1.087097,2.25184 2.950691,6.13433 1.708294,8.61912 -1.242397,2.4848 -8.774424,8.07558 -9.162675,12.96752 -0.388248,4.89194 -0.1553,10.71567 4.891937,15.14171 -3.105991,-5.43549 -4.348388,-9.78388 -3.72719,-13.04517 0.621199,-3.26129 3.550375,-6.14929 7.532031,-9.62857 3.713281,-3.24477 4.426037,-5.97904 3.72719,-9.70622 -0.69885,-3.7272 -1.630647,-6.28964 -1.630647,-6.28964 z"
       id="path118"
       sodipodi:nodetypes="ccsscscsscsssc" />
    <circle
       style="opacity:0.65;fill:#ffffff;stroke-width:0.214275"
       id="path122"
       cx="29.0637"
       cy="150.45906"
       r="1.6955112" />
    <path
       style="fill:#ff6600;stroke:#000000;stroke-width:0.242753px;stroke-linecap:butt;stroke-linejoin:miter;stroke-opacity:1"
       d="m 30.851505,157.399 c -2.3595,-1.6376 -4.84217,-5.11889 -4.84217,-5.11889 0.674135,2.74149 3.138699,5.47152 5.116162,6.55013 1.977462,1.07862 5.80413,0.36232 6.433322,0.31737 -4.798776,-0.66769 -7.135934,-1.84045 -6.707314,-1.74861 z"
       id="path124"
       sodipodi:nodetypes="ccscc" />
    <path
       style="fill:#000000;stroke:#000000;stroke-width:0.242373px;stroke-linecap:butt;stroke-linejoin:miter;stroke-opacity:1"
       d="m 70.813971,158.65054 c 0.533453,-5.83651 1.905188,-8.6759 3.429339,-10.64769 4.267622,-2.05066 6.096603,-1.57744 8.306622,-1.1042 2.210016,0.47322 12.802861,4.25907 10.364224,3.86472 -2.43864,-0.39436 -6.706265,-0.63097 -6.553848,-0.63097 -0.914491,2.60276 -2.46132,6.26096 -3.991256,7.75888 -1.54129,1.50905 -5.218846,3.51491 -8.278157,2.73105 -1.066906,2.28729 -2.895885,6.23087 -1.676565,8.75477 1.219321,2.5239 8.611449,8.20266 8.992488,13.17159 0.381037,4.96891 0.152415,10.88429 -4.801075,15.37999 3.048301,-5.52102 4.267622,-9.93785 3.657962,-13.25046 -0.609661,-3.31261 -3.48443,-6.24607 -7.392131,-9.7801 -3.644311,-3.29583 -4.343829,-6.07313 -3.657962,-9.85896 0.68587,-3.78585 1.600359,-6.38862 1.600359,-6.38862 z"
       id="path118-7"
       sodipodi:nodetypes="ccsscscsscsssc" />
    <ellipse
       style="opacity:0.65;fill:#ffffff;stroke-width:0.224804"
       id="path122-4"
       cx="-81.679527"
       cy="149.68501"
       rx="1.8373201"
       ry="1.7221932"
       transform="scale(-1,1)" />
    <path
       style="fill:#ff6600;stroke:#000000;stroke-width:0.254682px;stroke-linecap:butt;stroke-linejoin:miter;stroke-opacity:1"
       d="m 79.74219,156.7342 c 2.556844,-1.66337 5.247158,-5.19944 5.247158,-5.19944 -0.730517,2.78462 -3.401212,5.55761 -5.544067,6.6532 -2.142852,1.09559 -6.289574,0.36803 -6.971389,0.32237 5.200134,-0.6782 7.732768,-1.86942 7.268298,-1.77613 z"
       id="path124-9"
       sodipodi:nodetypes="ccscc" />
    <path
       style="fill:#000000;stroke:#000000;stroke-width:0.242753px;stroke-linecap:butt;stroke-linejoin:miter;stroke-opacity:1"
       d="m 55.011301,185.83094 c 4.770198,-0.5291 10.316676,-4.31424 12.004857,-1.5006 1.68819,2.81364 -2.813635,5.62727 -4.689398,7.50304 -1.875762,1.87576 -5.252124,4.22045 -6.002424,6.37758 1.406813,2.53227 6.471365,2.71985 10.129095,2.43849 -5.721065,1.12545 -8.06576,1.12545 -11.160772,0.37515 -3.661496,0.43459 -8.997695,0.15671 -11.863883,-0.47219 3.470158,0.18758 12.255845,-0.92432 10.755245,-2.70629 -1.500608,-1.78196 -5.43678,-5.8367 -7.911809,-8.05927 -3.652552,-3.27999 -4.307759,-7.50629 0.194066,-6.38083 4.501827,1.12546 8.545023,2.42492 8.545023,2.42492 z"
       id="path154"
       sodipodi:nodetypes="cssccccsssc" />
    <path
       style="fill:#000000;stroke:#000000;stroke-width:0.242753px;stroke-linecap:butt;stroke-linejoin:miter;stroke-opacity:1"
       d="m 22.780739,128.35525 c 2.076905,-2.57823 7.23335,-7.87791 7.734678,-8.59408 -2.220144,1.50396 -6.445562,3.79571 -6.445562,3.79571 -3.580868,-3.50924 -9.811571,-8.30761 -13.105961,-7.8779 -3.2943967,0.4297 -3.7240967,0.0716 -3.5808667,4.65512 0.14324,4.58352 0.931025,11.81687 7.0184867,18.54889 -4.4402667,-9.09539 -5.3712937,-11.88848 -5.3712937,-18.54889 6.3739407,1.79043 13.7505187,8.02115 13.7505187,8.02115 z"
       id="path156" />
    <path
       style="fill:#000000;stroke:#000000;stroke-width:0.242747px;stroke-linecap:butt;stroke-linejoin:miter;stroke-opacity:1"
       d="m 88.214277,128.56664 c -2.076791,-2.57822 -7.232955,-7.87791 -7.734257,-8.59408 2.220023,1.50396 6.44521,3.79571 6.44521,3.79571 3.580676,-3.50924 9.811033,-8.30761 13.10524,-7.8779 3.29423,0.4297 3.7239,0.0716 3.58068,4.65512 -0.14323,4.58352 -0.93098,11.81687 -7.018107,18.54889 4.440027,-9.09539 5.371007,-11.88848 5.371007,-18.54889 -6.373597,1.79043 -13.749773,8.02115 -13.749773,8.02115 z"
       id="path156-2" />
    <path
       style="opacity:0.65;fill:#ff6600;stroke-width:0.242753"
       id="path207"
       d="m 74.972336,122.68719 c -5.331012,0.28404 -10.660948,0.0422 -15.985812,-0.23508 -4.250204,-0.2512 -8.49888,-0.476 -12.757138,-0.41266 -3.076132,0.18914 -3.729009,0.53992 -6.880312,4.20775 -0.332985,0.38757 0.92355,0.45043 1.415664,0.58794 1.279842,0.35763 5.62447,1.06423 6.540443,1.22254 4.492006,0.77987 8.956393,1.70851 13.39224,2.76049 2.628341,0.62332 5.191547,1.20346 7.70802,2.17994 1.247164,1.74733 1.503029,2.4075 4.653573,-2.97105 0.448768,-0.76613 -1.742968,0.34836 -2.6242,0.4569 -1.163966,0.14337 -2.33542,0.22084 -3.505632,0.29811 -2.823406,0.18641 -5.433454,0.2395 -8.267381,0.32616 -6.126541,0.14606 -12.254254,0.0266 -18.380888,0.15296 -2.167738,0.0652 -3.883212,0.0169 -4.420801,4.48053 -0.137706,1.14339 2.253083,0.48044 3.386843,0.68265 5.006498,0.89293 10.062564,1.48959 15.105266,2.13068 4.512341,0.62247 9.029299,1.22298 13.527582,1.94283 0.883451,0.14137 1.778243,0.23383 2.645371,0.45419 0.257579,0.0654 0.469721,0.5383 0.693031,0.3942 1.573061,-1.01507 2.865547,-2.41002 4.298322,-3.61503 -0.881049,0.11381 -1.758385,0.26144 -2.643145,0.34145 -6.501254,0.58791 -13.073539,0.44275 -19.593713,0.51557 -3.899283,0.10957 -7.807053,0.0716 -11.703479,0.26531 -3.809021,0.24048 -6.660528,0.11002 -9.741355,3.81528 -0.512672,0.61659 1.466575,0.64898 2.199861,0.97347 7.936167,1.79156 15.675764,4.34993 23.407705,6.85962 0.578133,0.25825 1.205233,0.42701 1.734398,0.77474 0.185197,0.12169 0.47774,0.41765 0.326157,0.5793 -0.222526,0.2373 -1.215648,0.32067 -0.970037,0.10734 1.223661,-1.06282 2.970345,-1.50594 4.010955,-2.74853 0.451,-0.53854 -1.372081,0.30419 -2.06424,0.42396 -0.676586,0.11707 -1.359962,0.1908 -2.039944,0.2862 -1.566432,0.21277 -3.145403,0.2718 -4.721001,0.36689 -0.02403,0.002 -1.297433,0.0643 -1.413346,0.16174 -1.733315,1.45688 -3.361805,3.0341 -5.04271,4.55114 1.769294,1.4167 3.661337,2.66847 5.502039,3.98863 0.329636,0.23641 2.713977,1.9224 3.14017,2.36877 0.213024,0.22309 0.299768,0.53922 0.449653,0.80883 -2.64071,1.29979 1.990329,-0.94972 3.826242,-2.53547 0.478868,-0.4136 -1.204231,0.39097 -1.815495,0.55452 -1.726601,0.46196 -3.499233,0.76482 -5.247652,1.13112 -3.736789,0.8474 -6.595525,1.7318 -9.661669,4.7816 -0.355099,0.35321 0.734703,0.6809 1.102055,1.02134 5.171791,2.3845 10.499418,4.41417 15.710689,6.71329 -1.933337,-0.44854 2.092466,0.64853 1.559214,0.93727 -0.189802,0.10278 -0.784621,-0.0623 -0.616573,-0.19779 1.446888,-1.16621 3.319891,-1.7731 4.659639,-3.06097 0.430949,-0.41425 -1.177998,0.2062 -1.770699,0.2839 -0.705804,0.0925 -1.41565,0.15105 -2.123474,0.22658 -0.693373,0.0524 -1.386747,0.10484 -2.08012,0.15727 l -5.181565,3.82319 -4.281952,1.67414 c -0.650503,0.25434 4.732684,-0.0966 4.732684,-0.0966 0.691045,-0.053 2.088216,-0.86131 2.778729,-0.9208 0,0 2.107016,-0.90806 2.628962,-1.13159 2.385184,-1.02149 4.733169,-2.16182 6.937111,-3.53118 0.23199,-0.14414 0.168532,-0.5659 0.06124,-0.81708 -0.281713,-0.65953 -1.765213,-0.40392 -1.936529,-0.9375 -5.243482,-1.95905 -10.574803,-3.84982 -15.424378,-6.67843 -2.453324,-1.19967 -0.310766,-0.32597 -6.127086,2.9923 -0.167275,0.0954 0.309468,-0.23549 0.486097,-0.31224 1.055076,-0.45842 2.249983,-0.58728 3.330816,-0.96104 1.766186,-0.40693 3.541231,-0.7656 5.312802,-1.14837 0.595807,-0.12874 1.241811,-0.11608 1.786779,-0.38915 2.359188,-1.18215 4.697751,-2.43733 6.86326,-3.94524 0.284251,-0.19794 0.16712,-0.6723 0.250678,-1.00844 -0.233757,-0.30542 -0.416257,-0.65801 -0.701275,-0.91624 -0.231815,-0.21003 -3.249196,-2.26785 -3.28607,-2.29385 -1.757622,-1.23959 -3.51757,-2.49922 -5.082295,-3.98145 -2.019643,1.02632 -4.023224,2.08487 -6.058933,3.07893 -0.16199,0.0791 0.257672,-0.27279 0.428754,-0.32962 0.310342,-0.10308 0.646339,-0.10199 0.971629,-0.13549 1.62749,-0.1676 3.268316,-0.21464 4.891103,-0.43588 5.300391,-0.67982 5.323182,-0.57857 11.47147,-4.30753 0.338751,-0.20546 0.566461,-0.67396 0.522263,-1.06767 -0.09111,-0.81161 -2.657493,-1.4252 -2.668716,-1.42926 -7.789473,-2.14089 -15.542771,-4.43427 -23.199764,-7.01052 -3.425004,-0.0471 -1.115677,-0.22758 -7.021136,3.27753 -0.156578,0.0929 0.337525,-0.14415 0.516434,-0.17799 1.101352,-0.20833 2.253787,-0.14089 3.360688,-0.2991 4.019173,-0.29624 8.055603,-0.30878 12.077384,-0.57039 7.29645,-0.24255 14.598471,-0.18797 21.895206,-0.43036 2.179761,-1.38598 4.539013,-2.52354 6.539282,-4.15793 0.294921,-0.24097 -0.731167,-0.22276 -1.107669,-0.28014 -0.942208,-0.14361 -1.894275,-0.21269 -2.841108,-0.3217 -3.262265,-0.37564 -5.224109,-0.60449 -8.568315,-1.03503 -1.754002,-0.22581 -3.506211,-0.46532 -5.259315,-0.69799 -3.883569,-0.52097 -6.575746,-0.83984 -10.411375,-1.51576 -1.425518,-0.25121 -2.849611,-0.51676 -4.259776,-0.84333 -1.013794,-0.23478 -1.999977,-1.10224 -3.006883,-0.83949 -3.182347,0.83043 -9.166645,5.05736 -6.314497,3.0596 6.277491,-0.44912 12.568212,-0.43175 18.858434,-0.52014 3.564234,-0.0627 4.643292,-0.0629 8.12934,-0.19391 1.122911,-0.0422 2.245565,-0.0924 3.367636,-0.15291 0.82345,-0.0444 1.72498,0.1946 2.468646,-0.16177 2.363863,-1.13278 4.595936,-2.57048 6.644809,-4.20545 0.22815,-0.18206 -0.449067,-0.373 -0.6736,-0.5595 -2.709655,-0.78141 -5.470124,-1.30972 -8.226895,-1.90283 -4.432472,-0.95362 -8.865612,-1.90395 -13.30159,-2.8412 -2.037127,-0.45337 -4.017789,-0.8416 -6.009819,-1.44185 -0.354147,-0.10671 -0.699915,-0.54811 -1.036789,-0.39539 -2.071454,0.9391 -3.924244,2.30196 -5.847305,3.51632 -0.436172,0.27543 2.511172,-1.05198 1.513108,-0.3248 4.357292,-0.25941 8.712842,-0.10817 13.069784,0.11734 5.178141,0.23542 10.352555,0.51989 15.535967,0.59923 l 5.479217,-3.98089 z"
       sodipodi:nodetypes="sccsscscsssccsccscsccccsccsssssccscsscsscsccscsscccscscssccsscssscsccssscssccsscccsssscsssccsssscscscsccccs" />
    <text
       xml:space="preserve"
       style="font-style:normal;font-variant:normal;font-weight:normal;font-stretch:normal;font-size:40.7838px;line-height:1.25;font-family:Herculanum;-inkscape-font-specification:Herculanum;stroke-width:1.01959"
       x="107.27136"
       y="140.79051"
       id="text211"><tspan
         sodipodi:role="line"
         id="tspan209"
         x="107.27136"
         y="140.79051"
         style="font-style:normal;font-variant:normal;font-weight:normal;font-stretch:normal;font-family:Herculanum;-inkscape-font-specification:Herculanum;stroke-width:1.01959">ALLY</tspan></text>
    <path
       style="opacity:0.65;fill:#ff6600;stroke-width:0.282967"
       id="path229"
       d="m 147.28289,135.25842 c -3.73509,4.09462 -7.05806,8.60197 -9.80222,13.42308 -0.73655,1.29404 -1.36847,2.6449 -2.05271,3.96735 -1.19951,2.7102 -2.11777,4.44941 -2.83951,7.2971 -0.40011,1.57865 -0.91855,4.0055 -0.009,5.61413 1.21037,2.14263 2.95441,1.90216 5.07599,2.29976 1.30854,-0.14523 2.63059,-0.19828 3.92557,-0.43569 6.06257,-1.11142 11.94473,-4.02071 17.68484,-6.22276 3.07989,-1.15535 6.17821,-2.25748 9.30661,-3.27382 0,0 5.08341,-3.94757 5.08341,-3.94757 v 0 c -3.20175,1.07845 -6.37796,2.22888 -9.54031,3.41803 -0.99781,0.38528 -2.00155,0.75551 -2.99342,1.15586 -4.82768,1.94858 -9.57381,4.25278 -14.718,5.27772 -1.21371,0.24181 -2.45498,0.31517 -3.68247,0.47275 -1.68054,-0.23664 -3.51701,-0.0139 -4.57045,-1.7288 -0.88965,-1.44829 -0.41179,-3.78947 -0.0726,-5.21386 0.68107,-2.85974 1.51075,-4.39259 2.70583,-7.12419 0.69168,-1.3087 1.3322,-2.64572 2.075,-3.92608 2.91712,-5.02812 6.51372,-9.64244 10.66651,-13.70519 0,0 -6.24223,2.65218 -6.24223,2.65218 z" />
    <path
       style="opacity:0.65;fill:#ff6600;stroke-width:0.292166"
       id="path231"
       d="m 152.69733,149.32959 c 0.45614,8.82563 0.69366,17.6641 0.98339,26.49728 0,0 5.43698,-2.8063 5.43698,-2.8063 v 0 c -0.64829,-8.92289 -0.92932,-17.88261 -0.28555,-26.81683 0,0 -6.13482,3.12585 -6.13482,3.12585 z" />
    <text
       xml:space="preserve"
       style="font-style:normal;font-variant:normal;font-weight:normal;font-stretch:normal;font-size:42.3172px;line-height:1.25;font-family:Herculanum;-inkscape-font-specification:Herculanum;stroke-width:1.05793"
       x="103.39105"
       y="197.72784"
       id="text235"><tspan
         sodipodi:role="line"
         id="tspan233"
         x="103.39105"
         y="197.72784"
         style="font-style:normal;font-variant:normal;font-weight:normal;font-stretch:normal;font-family:Herculanum;-inkscape-font-specification:Herculanum;stroke-width:1.05793">YOU</tspan></text>
    <text
       xml:space="preserve"
       style="font-size:10.5833px;line-height:1.25;font-family:'Grantha Sangam MN';-inkscape-font-specification:'Grantha Sangam MN';stroke-width:0.264583"
       x="150.49768"
       y="249.11325"
       id="text241"><tspan
         sodipodi:role="line"
         id="tspan239"
         x="150.49768"
         y="249.11325"
         style="stroke-width:0.264583" /></text>
  </g>
</svg>
